<?xml version="1.0" encoding="utf-8"?>
<!-- Generator: Adobe Illustrator 25.0.0, SVG Export Plug-In . SVG Version: 6.00 Build 0)  -->
<svg version="1.1" id="Capa_1" xmlns="http://www.w3.org/2000/svg" xmlns:xlink="http://www.w3.org/1999/xlink" x="0px" y="0px"
	 viewBox="0 0 2500 2500" style="enable-background:new 0 0 2500 2500;" xml:space="preserve">
<path d="M891.8,1250c0-197.9,160.4-358.3,358.3-358.3s358.3,160.5,358.3,358.3s-160.5,358.3-358.3,358.3S891.8,1447.9,891.8,1250
	 M698.1,1250c0,304.9,247.1,552,552,552s552-247.1,552-552s-247.1-552-552-552S698.1,945.1,698.1,1250 M1694.9,676.2
	c0,71.2,57.7,129,129,129c71.2,0,129-57.8,129-129s-57.7-128.9-129-128.9C1752.6,547.2,1694.9,605,1694.9,676.2 M815.7,2125
	c-104.8-4.8-161.8-22.2-199.6-37c-50.2-19.5-86-42.8-123.6-80.4c-37.6-37.6-61-73.4-80.4-123.6c-14.8-37.9-32.2-94.8-37-199.6
	c-5.2-113.3-6.3-147.3-6.3-434.4s1.1-321,6.3-434.4c4.8-104.8,22.3-161.7,37-199.6c19.5-50.2,42.8-86,80.4-123.6
	c37.6-37.6,73.4-61,123.6-80.4c37.9-14.8,94.8-32.2,199.6-37c113.3-5.2,147.3-6.3,434.3-6.3c287.1,0,321,1.1,434.4,6.3
	c104.8,4.8,161.7,22.3,199.6,37c50.2,19.4,86,42.8,123.6,80.4c37.6,37.6,60.9,73.5,80.4,123.6c14.8,37.9,32.2,94.8,37,199.6
	c5.2,113.4,6.3,147.3,6.3,434.4c0,287-1,321-6.3,434.4c-4.8,104.8-22.3,161.8-37,199.6c-19.5,50.2-42.8,86-80.4,123.6
	c-37.6,37.6-73.5,60.9-123.6,80.4c-37.9,14.8-94.8,32.2-199.6,37c-113.3,5.2-147.3,6.3-434.4,6.3
	C963.1,2131.2,929,2130.2,815.7,2125 M806.9,181.6c-114.4,5.2-192.6,23.4-260.9,49.9c-70.7,27.4-130.6,64.3-190.4,124
	c-59.7,59.7-96.6,119.6-124,190.4c-26.6,68.3-44.7,146.5-49.9,260.9c-5.3,114.6-6.5,151.3-6.5,443.2s1.2,328.6,6.5,443.2
	c5.2,114.4,23.4,192.6,49.9,260.9c27.4,70.7,64.2,130.7,124,190.4c59.7,59.7,119.6,96.5,190.4,124c68.4,26.6,146.5,44.7,260.9,49.9
	c114.7,5.2,151.3,6.5,443.2,6.5c292,0,328.6-1.2,443.2-6.5c114.4-5.2,192.6-23.4,260.9-49.9c70.7-27.5,130.6-64.3,190.4-124
	c59.7-59.7,96.5-119.7,124-190.4c26.6-68.3,44.8-146.5,49.9-260.9c5.2-114.7,6.4-151.3,6.4-443.2s-1.2-328.6-6.4-443.2
	c-5.2-114.4-23.4-192.6-49.9-260.9c-27.5-70.7-64.3-130.6-124-190.4c-59.7-59.7-119.7-96.6-190.3-124
	c-68.4-26.6-146.6-44.8-260.9-49.9c-114.6-5.2-151.3-6.5-443.2-6.5C958.1,175.1,921.6,176.3,806.9,181.6"/>
</svg>
