<?xml version="1.0" encoding="utf-8"?>
<!-- Generator: Adobe Illustrator 25.0.0, SVG Export Plug-In . SVG Version: 6.00 Build 0)  -->
<svg version="1.1" id="Capa_1" xmlns="http://www.w3.org/2000/svg" xmlns:xlink="http://www.w3.org/1999/xlink" x="0px" y="0px"
	 viewBox="0 0 2500 2500" style="enable-background:new 0 0 2500 2500;" xml:space="preserve">
<path d="M887.8,2021.4c736.9,0,1139.9-610.7,1139.9-1140.3c0-17.3-0.4-34.6-1.1-51.8c78.4-56.8,146.1-127,199.8-207.5
	c-71.8,31.9-149,53.4-230.1,63.1c82.7-49.6,146.2-128.1,176.2-221.7c-78.6,46.7-164.7,79.6-254.4,97.3
	c-73.1-77.9-177.2-126.6-292.4-126.6c-221.2,0-400.7,179.5-400.7,400.7c0,31.5,3.5,62,10.4,91.4c-333-16.8-628.2-176.2-825.8-418.7
	c-35.6,61.2-54.3,130.7-54.2,201.4c0,139,70.7,261.8,178.3,333.6c-63.6-1.9-125.8-19.1-181.4-50.1c-0.1,1.7-0.1,3.3-0.1,5.1
	c0,194.1,138.1,356.1,321.4,392.9c-34.4,9.4-70,14.1-105.6,14.1c-25.8,0-50.9-2.5-75.3-7.2c51,159.2,198.9,275.1,374.2,278.4
	c-137.1,107.5-309.9,171.6-497.6,171.6c-31.9,0-63.8-1.8-95.6-5.6C451,1955,661.5,2021.4,887.8,2021.4"/>
</svg>
