<?xml version="1.0" encoding="UTF-8" standalone="no"?> <svg width="32.000" height="32.000" xmlns="http://www.w3.org/2000/svg" viewBox="0 0 64 64"><title>1</title><g id="Layer_20" data-name="Layer 20"><path d="M52.67,13.86a31.87,31.87,0,0,0-45,0,2,2,0,1,0,2.83,2.83A7.95,7.95,0,0,1,21.71,27.92a2,2,0,0,0,2.83,2.83,8,8,0,0,1,9.64-1.23l-23,23a3.14,3.14,0,0,1-4.33,0,3.07,3.07,0,0,1,0-4.33l2.73-2.73A2,2,0,1,0,6.8,42.58L4.07,45.32a7.06,7.06,0,1,0,10,10l23-23A8,8,0,0,1,35.78,42a2,2,0,0,0,2.83,2.83A7.95,7.95,0,1,1,49.85,56.06a2,2,0,1,0,2.83,2.83A31.87,31.87,0,0,0,52.67,13.86Zm-28.13,0a11.87,11.87,0,0,0-5.32-3.08A28,28,0,0,1,44.6,12.57c-4.86,1.24-10.82,4.86-16.57,9.6A11.86,11.86,0,0,0,24.54,13.86ZM38.61,27.92a11.85,11.85,0,0,0-7.09-3.42A55.4,55.4,0,0,1,41,18.26c5.13-2.56,8-2.45,8.84-1.58C51.68,18.52,49.25,26,42,35A11.85,11.85,0,0,0,38.61,27.92ZM52.67,42a11.86,11.86,0,0,0-8.32-3.49,61.15,61.15,0,0,0,7.49-11.18,27.35,27.35,0,0,0,2.1-5.41,28,28,0,0,1,1.81,25.41A11.87,11.87,0,0,0,52.67,42Z"/></g></svg>